<svg width="141" height="100" viewBox="0 0 141 100" fill="none" xmlns="http://www.w3.org/2000/svg">
<g clip-path="url(#clip0_17_1048)">
<mask id="mask0_17_1048" style="mask-type:luminance" maskUnits="userSpaceOnUse" x="0" y="0" width="141" height="100">
<path d="M0 99.9998H140.986V0.0212097H0V99.9998Z" fill="white"/>
</mask>
<g mask="url(#mask0_17_1048)">
<path d="M0 99.9998H140.984V0.0212097H0V99.9998Z" fill="white"/>
</g>
<path d="M34.1062 57.8441L37.6106 39.0943H37.7234L41.2411 57.8441H34.1062ZM33.3297 27.745L23.374 72.2599H31.3916L32.8385 64.76H42.6282L44.0751 72.2599H52.4179L42.4623 27.745H33.3297ZM76.2849 64.7467H68.0018V27.7383H59.659V65.3042L66.6147 72.2599H77.7451L84.7007 65.3042V27.7383H76.3645L76.2849 64.7467ZM37.0199 55.4149H38.3075L37.6637 51.9836L37.0199 55.4149ZM92.6387 35.2581H100.988V72.2599H109.338V35.2581H117.674V27.745H92.6387V35.2581Z" fill="#010000"/>
<mask id="mask1_17_1048" style="mask-type:luminance" maskUnits="userSpaceOnUse" x="0" y="0" width="141" height="100">
<path d="M0 99.9998H140.986V0.0212097H0V99.9998Z" fill="white"/>
</mask>
<g mask="url(#mask1_17_1048)">
<path d="M120.101 35.2525C120.101 35.8894 119.843 36.5169 119.389 36.9664C118.935 37.416 118.312 37.6758 117.675 37.6758H111.763V72.2539C111.763 72.8931 111.505 73.5183 111.049 73.9678C110.592 74.4174 109.972 74.6773 109.335 74.6773H100.985C100.346 74.6773 99.721 74.4431 99.2715 73.9678C98.8219 73.4925 98.5597 72.8908 98.5597 72.2539V37.6782H92.6359C91.9967 37.6782 91.3715 37.416 90.922 36.9688C90.4724 36.5216 90.2102 35.8917 90.2102 35.2525V27.7412C90.2126 27.0987 90.469 26.4831 90.9234 26.0287C91.3778 25.5743 91.9933 25.318 92.6359 25.3155H117.673C118.315 25.3166 118.931 25.5716 119.387 26.025C119.839 26.4769 120.098 27.102 120.098 27.7412L120.101 35.2525ZM87.0539 65.2976C87.0529 65.939 86.7988 66.554 86.3469 67.0092L79.3928 73.9678C79.1682 74.1945 78.9009 74.3744 78.6063 74.497C78.3117 74.6195 77.9957 74.6824 77.6766 74.682L66.5408 74.6773C65.8969 74.6773 65.2881 74.4244 64.8269 73.9678L57.8775 67.0092C57.6519 66.7849 57.4728 66.5183 57.3506 66.2245C57.2285 65.9308 57.1656 65.6158 57.1657 65.2976V27.7412C57.1657 27.1044 57.4233 26.4769 57.8775 26.025C58.3338 25.5719 58.9508 25.3177 59.5938 25.3179H67.9339C68.5761 25.3203 69.1913 25.5764 69.6456 26.0303C70.0999 26.4841 70.3566 27.0991 70.3596 27.7412V62.324H73.8601V27.7412C73.8601 27.1044 74.1176 26.4769 74.5719 26.025C75.0276 25.5725 75.6436 25.3183 76.2858 25.3179H84.6306C85.2724 25.3209 85.887 25.5772 86.3408 26.0311C86.7946 26.4849 87.0509 27.0995 87.0539 27.7412V65.2976ZM54.2507 73.7688C53.7894 74.3448 53.0917 74.7054 52.3588 74.7054L44.007 74.7031C42.8409 74.7031 41.8458 73.8789 41.6257 72.7363L40.5557 67.1988H34.7724L33.7047 72.7363C33.4846 73.8836 32.4872 74.7031 31.3212 74.7031H23.3041C22.9404 74.7024 22.5815 74.6202 22.2537 74.4626C21.9259 74.305 21.6376 74.0759 21.4099 73.7923C20.9487 73.2139 20.7778 72.4624 20.9417 71.7459L30.9629 27.2355C31.2111 26.1233 32.1922 25.3389 33.3278 25.3389H42.3422C43.4731 25.3389 44.4542 26.121 44.7071 27.2355L54.7283 71.7459C54.8072 72.1007 54.8057 72.4686 54.7238 72.8227C54.642 73.1768 54.4819 73.5081 54.2554 73.7923M0.00468027 100.023H140.989V0.0445709H0L0.00468027 100.023Z" fill="#010000"/>
</g>
</g>
<defs>
<clipPath id="clip0_17_1048">
<rect width="140.982" height="100" fill="white"/>
</clipPath>
</defs>
</svg>
